<?xml version="1.0" standalone="no"?>
<!DOCTYPE svg PUBLIC "-//W3C//DTD SVG 20010904//EN"
 "http://www.w3.org/TR/2001/REC-SVG-20010904/DTD/svg10.dtd">
<svg version="1.0" xmlns="http://www.w3.org/2000/svg"
 width="1562.000000pt" height="566.000000pt" viewBox="0 0 1562.000000 566.000000"
 preserveAspectRatio="xMidYMid meet">

<g transform="translate(0.000000,566.000000) scale(0.100000,-0.100000)"
fill="#000000" stroke="none">
<path d="M3518 4470 c-674 -106 -1176 -621 -1259 -1290 -14 -116 -6 -334 16
-449 118 -609 598 -1073 1216 -1177 138 -23 415 -16 545 14 288 67 516 193
725 401 310 310 457 706 427 1149 -44 652 -512 1188 -1163 1333 -102 23 -409
34 -507 19z m455 -584 c627 -188 865 -934 460 -1447 -112 -141 -291 -260 -470
-311 -66 -19 -102 -23 -238 -23 -183 0 -245 12 -383 76 -213 98 -388 284 -472
501 -64 166 -77 390 -31 558 89 328 353 583 685 661 121 28 328 21 449 -15z"/>
<path d="M6765 3206 c-115 -42 -156 -64 -232 -120 -113 -85 -169 -248 -118
-346 9 -18 38 -61 64 -94 26 -34 62 -87 80 -118 18 -32 37 -60 42 -63 5 -4 21
-30 36 -58 24 -47 25 -56 14 -95 -19 -73 -51 -104 -160 -156 -109 -52 -133
-54 -207 -12 -44 25 -60 58 -50 108 6 32 13 38 94 77 85 40 122 45 122 17 0
-19 -72 -84 -108 -97 -21 -7 -32 -17 -32 -30 0 -17 5 -19 36 -13 60 11 136 42
161 65 40 38 26 125 -24 148 -40 19 -85 13 -169 -23 -183 -77 -192 -86 -192
-191 0 -81 11 -105 70 -161 35 -33 55 -43 106 -53 58 -11 70 -10 130 10 140
45 230 101 289 181 58 80 62 89 63 138 0 38 -20 85 -130 303 l-129 259 16 41
c37 95 125 178 238 227 76 32 108 28 144 -22 17 -23 31 -46 31 -52 0 -22 -57
-81 -113 -117 -62 -40 -81 -45 -106 -30 -12 8 -10 15 11 43 31 39 66 74 93 93
31 21 10 29 -38 15 -55 -15 -106 -63 -143 -135 -27 -52 -28 -56 -13 -82 14
-25 20 -28 70 -28 47 0 65 7 126 43 79 48 221 165 230 190 4 8 -7 40 -23 71
-52 101 -134 120 -279 67z"/>
<path d="M12323 3221 c-31 -8 -159 -119 -252 -217 -50 -53 -94 -114 -128 -176
-29 -53 -53 -99 -53 -103 0 -4 -24 -62 -54 -129 -29 -67 -68 -160 -86 -209
l-33 -87 -87 -50 c-48 -28 -100 -50 -115 -50 -27 0 -28 0 -21 53 4 28 18 87
32 130 28 91 30 129 8 152 -18 18 -57 13 -109 -13 -16 -8 -89 -75 -162 -148
-72 -74 -133 -134 -136 -134 -4 0 67 143 136 271 l32 60 -28 25 c-31 27 -71
25 -95 -5 -28 -34 -102 -179 -123 -241 -12 -36 -30 -77 -41 -92 -21 -30 -67
-148 -75 -191 -7 -36 12 -57 50 -57 24 0 39 10 71 48 94 110 350 342 363 329
3 -3 -2 -40 -11 -82 -21 -104 -22 -211 0 -219 38 -15 75 -3 160 50 49 31 97
63 107 72 21 19 21 19 -4 -48 -40 -105 -76 -297 -96 -510 -7 -74 10 -136 40
-144 58 -15 78 -7 141 57 126 128 219 306 237 452 5 39 14 88 20 110 6 22 15
63 21 90 16 81 16 81 125 124 71 29 74 28 58 -20 -17 -48 -19 -148 -5 -200 11
-41 47 -70 120 -99 61 -24 81 -25 123 -4 45 22 154 140 183 196 28 56 54 126
54 151 0 19 1 19 80 22 132 5 291 68 257 102 -3 3 -39 -3 -79 -13 -42 -10
-108 -18 -156 -17 l-83 0 -62 66 c-59 63 -96 83 -111 58 -3 -5 -22 -12 -43
-16 -58 -11 -113 -42 -169 -97 -47 -46 -58 -51 -140 -70 -61 -13 -103 -17
-134 -13 -63 10 -81 8 -99 -9 -12 -12 -12 -18 -3 -28 7 -7 12 -28 12 -48 -1
-49 -34 -191 -65 -275 -14 -38 -37 -100 -49 -136 -13 -37 -30 -77 -37 -90 -18
-34 -82 -119 -90 -119 -3 0 -11 11 -17 25 -9 20 -6 41 18 116 17 51 35 131 40
178 22 174 63 341 95 381 7 8 34 46 60 84 27 38 74 96 106 128 75 78 245 323
273 396 74 192 81 246 29 233z m-123 -257 c0 -26 -48 -117 -90 -169 -22 -27
-72 -92 -111 -142 -75 -98 -89 -113 -89 -90 0 16 39 108 73 172 78 149 217
296 217 229z m354 -500 c13 -15 30 -46 36 -69 10 -37 9 -48 -8 -86 -27 -60
-71 -123 -105 -149 -23 -18 -35 -21 -73 -15 -89 13 -105 100 -42 232 49 105
138 145 192 87z"/>
<path d="M11225 3198 c-346 -37 -332 -34 -350 -62 -8 -11 -15 -39 -17 -61 l-3
-40 53 2 c28 1 52 -1 52 -5 0 -4 -20 -54 -44 -112 -24 -58 -57 -136 -72 -175
-16 -38 -43 -90 -60 -115 -18 -25 -44 -72 -59 -105 -29 -65 -148 -366 -159
-403 -5 -16 -20 -25 -51 -33 -50 -13 -70 -32 -77 -71 -8 -43 12 -53 75 -40 29
6 72 14 97 17 25 4 68 13 96 21 45 13 54 20 74 58 32 63 16 77 -54 50 -26 -10
-20 16 50 199 36 94 77 201 90 237 13 36 61 133 105 215 45 83 95 175 112 205
41 77 40 76 108 90 44 9 71 22 95 45 36 34 58 96 33 93 -8 0 -50 -5 -94 -10z"/>
<path d="M9692 3150 c-56 -45 -96 -104 -137 -201 -104 -247 -172 -417 -202
-499 -18 -52 -37 -97 -41 -100 -16 -15 -220 -149 -299 -197 -46 -29 -95 -53
-109 -53 -15 0 -38 13 -56 30 -26 26 -30 36 -25 65 10 62 65 160 128 228 55
61 64 67 100 67 45 0 81 30 106 89 13 30 13 36 0 49 -20 20 -65 11 -152 -31
-62 -30 -80 -46 -155 -136 -159 -192 -309 -331 -357 -331 -18 0 -43 41 -43 72
0 16 19 56 45 95 25 37 45 69 45 73 0 16 -42 85 -80 130 -40 48 -42 54 -36 96
7 52 -7 64 -54 44 -26 -11 -130 -144 -130 -167 0 -4 -26 -46 -58 -93 -48 -70
-74 -96 -146 -147 -92 -65 -130 -77 -141 -44 -8 25 13 228 26 252 5 10 9 27 9
38 0 18 -6 21 -47 21 -39 0 -53 5 -78 30 -52 50 -79 49 -159 -7 -93 -65 -232
-198 -253 -243 -24 -50 -94 -104 -183 -141 -84 -35 -181 -49 -205 -29 -19 16
-21 90 -1 90 7 0 60 22 118 49 150 70 191 125 192 256 1 85 -21 114 -88 115
-68 0 -137 -42 -226 -138 -80 -86 -107 -132 -126 -212 -25 -106 -12 -176 45
-228 48 -45 95 -65 135 -57 39 9 168 77 217 115 20 17 40 30 45 30 4 0 15 7
25 16 23 21 35 12 42 -30 3 -19 13 -46 22 -60 19 -28 117 -70 145 -61 10 3 64
43 121 89 57 47 107 82 111 80 5 -3 8 -13 8 -22 0 -36 38 -81 75 -88 38 -7 66
6 118 54 l27 26 0 -45 c0 -24 7 -52 14 -62 14 -18 8 -25 232 313 32 48 112
125 121 117 4 -4 12 -23 19 -43 14 -41 8 -66 -31 -141 -32 -62 -42 -127 -26
-176 14 -40 72 -97 99 -97 37 0 122 53 183 113 l63 62 14 -50 c21 -74 34 -97
72 -123 28 -19 44 -22 80 -18 77 8 110 23 184 83 39 32 98 78 131 103 33 24
72 55 87 69 15 13 30 22 33 20 2 -3 -11 -53 -30 -112 -40 -121 -43 -152 -17
-166 41 -22 46 -16 285 257 66 75 138 133 162 130 27 -4 31 -50 11 -129 -26
-99 -22 -133 17 -163 19 -15 46 -26 62 -26 38 0 152 78 238 164 113 112 141
156 98 156 -18 0 -39 -16 -188 -142 -66 -57 -90 -66 -111 -44 -15 14 -15 25 1
119 10 56 15 110 12 119 -9 22 -80 78 -100 78 -43 0 -140 -87 -280 -249 -79
-92 -101 -102 -72 -33 8 21 25 64 38 97 13 33 61 132 108 220 199 376 216 415
236 528 26 145 20 153 -63 87z m-2467 -651 c16 -25 -8 -83 -53 -131 -42 -45
-124 -98 -152 -98 -27 0 -3 49 66 130 90 107 121 129 139 99z m539 -61 c3 -13
6 -47 6 -77 0 -46 -5 -60 -36 -102 -42 -58 -161 -159 -186 -159 -11 0 -23 11
-28 26 -15 38 -12 131 4 162 16 29 102 115 151 150 41 29 81 29 89 0z"/>
<path d="M5015 2078 c-72 -103 -222 -257 -334 -340 -53 -40 -98 -73 -100 -75
-8 -5 373 -485 402 -507 74 -55 118 -70 207 -71 120 0 174 27 297 147 124 122
158 187 158 303 0 86 -20 146 -70 211 -20 26 -494 404 -507 404 -1 0 -25 -33
-53 -72z"/>
</g>
</svg>
